# xmcd
#
# Track frame offsets:
# 150
# 17146
# 34359
# 49944
# 67322
# 82958
# 98796
# 115509
# 132594
# 148820
# 165505
# 182486
# 200879
# 221779
# 239712
# 254276
# 275080
# 294597
# 328337
#
# Disc length: 4795 seconds
#
#
# Revision: 0
# Processed by: cddbd v1.5.1PL0 Copyright (c) Steve Scherf et al.
# Submitted via: FreeRIP 2.40 
#
DISCID=3812b913
DTITLE=BLUE - BEST OF BLUE
DYEAR=2005
DGENRE=Blues
TTITLE0=ALL RISE
TTITLE1=TOO CLOSE
TTITLE2=IF YOU COME BACK
TTITLE3=FLY BY II
TTITLE4=ONE LOVE
TTITLE5=SORRY SEEMS TO BE THE HARDEST WORD
TTITLE6=U MAKE ME WANNA
TTITLE7=GUILTY
TTITLE8=SIGNED SEALED DELIVERED IM YOURS
TTITLE9=BREATHE EASY
TTITLE10=BUBBLIN
TTITLE11=CURTAIN FAILS
TTITLE12=GET DOWN ON IT
TTITLE13=LOVE AT FIRST SIGHT
TTITLE14=BEST IN ME 2004
TTITLE15=LONG TIME (SMOOTH MIX)
TTITLE16=ONE LOVE-THE SEQUEL
TTITLE17=THE GIFT
TTITLE18=DATA
EXTD=
EXTT0=
EXTT1=
EXTT2=
EXTT3=
EXTT4=
EXTT5=
EXTT6=
EXTT7=
EXTT8=
EXTT9=
EXTT10=
EXTT11=
EXTT12=
EXTT13=
EXTT14=
EXTT15=
EXTT16=
EXTT17=
EXTT18=
PLAYORDER=
